<?xml version="1.0" encoding="UTF-8" standalone="no"?>
<svg width="40px" height="38px" viewBox="0 0 40 38" version="1.1" xmlns="http://www.w3.org/2000/svg" xmlns:xlink="http://www.w3.org/1999/xlink" xmlns:sketch="http://www.bohemiancoding.com/sketch/ns">
    <!-- Generator: Sketch 3.3.2 (12043) - http://www.bohemiancoding.com/sketch -->
    <title>Link Category Copy 2</title>
    <desc>Created with Sketch.</desc>
    <defs></defs>
    <g id="Flow-V4" stroke="none" stroke-width="1" fill="none" fill-rule="evenodd" sketch:type="MSPage">
        <g id="F" sketch:type="MSArtboardGroup" transform="translate(-268.000000, -945.000000)" stroke="#FFFFFF">
            <g id="Links-label-sidebar" sketch:type="MSLayerGroup" transform="translate(264.000000, 909.000000)">
                <g id="Link-Category-Copy-2" transform="translate(5.000000, 36.000000)" sketch:type="MSShapeGroup">
                    <g id="Oval-15-+-Oval-15-Copy">
                        <ellipse id="Oval-2-Copy" cx="19" cy="18.7647059" rx="18.6705142" ry="18.2647059"></ellipse>
                        <path d="M18.8325033,21.7823006 C20.6628581,22.6636776 23.5424046,20.7893506 25.2641505,17.5958742 C26.9858964,14.4023978 26.8978514,11.0990764 25.0674967,10.2176994 C23.2371419,9.33632242 20.3575954,11.2106494 18.6358495,14.4041258 C16.9141036,17.5976022 17.0021486,20.9009236 18.8325033,21.7823006 L18.8325033,21.7823006 Z" id="Oval-15"></path>
                        <path d="M20.3641505,24.5958742 C22.0858964,21.4023978 21.9978514,18.0990764 20.1674967,17.2176994 C18.3371419,16.3363224 15.4575954,18.2106494 13.7358495,21.4041258 C12.0141036,24.5976022 12.1021486,27.9009236 13.9325033,28.7823006 C15.7628581,29.6636776 18.6424046,27.7893506 20.3641505,24.5958742 Z" id="Oval-15-Copy"></path>
                    </g>
                </g>
            </g>
        </g>
    </g>
</svg>